<svg id="Capa_1" enable-background="new 0 0 512 512" height="512" viewBox="0 0 512 512" width="512" xmlns="http://www.w3.org/2000/svg" xmlns:xlink="http://www.w3.org/1999/xlink"><linearGradient id="SVGID_1_" gradientUnits="userSpaceOnUse" x1="256" x2="256" y1="512" y2="0"><stop offset="0" stop-color="#addcff"/><stop offset=".5028" stop-color="#eaf6ff"/><stop offset="1" stop-color="#eaf6ff"/></linearGradient><linearGradient id="SVGID_2_" gradientUnits="userSpaceOnUse" x1="256" x2="256" y1="105" y2="407"><stop offset="0" stop-color="#5558ff"/><stop offset="1" stop-color="#00c0ff"/></linearGradient><g><g><circle cx="256" cy="256" fill="url(#SVGID_1_)" r="256"/></g><g><g><path d="m264.848 113.146c-.382-4.606-4.225-8.146-8.848-8.146s-8.466 3.539-8.848 8.145l-17.765 213.176c-.087.971-.009 1.943.234 2.888l17.765 71.059c.989 3.955 4.537 6.731 8.614 6.731s7.625-2.776 8.614-6.731l17.765-71.059c.243-.945.321-1.917.234-2.888zm-38.402 34.555-120.275 210.48c-1.795 3.14-1.509 7.043.72 9.889 2.229 2.836 5.959 4.034 9.429 3.062l98.438-28.125-2.371-9.486c-.72-2.793-.963-5.786-.694-8.778zm179.383 210.481-120.275-210.482 14.762 177.147c.26 2.888.017 5.881-.729 8.787l-2.344 9.374 98.437 28.125c3.612 1.009 7.276-.319 9.429-3.062 2.229-2.846 2.515-6.749.72-9.889z" fill="url(#SVGID_2_)"/></g></g></g></svg>