<svg id="Capa_1" enable-background="new 0 0 512 512" height="512" viewBox="0 0 512 512" width="512" xmlns="http://www.w3.org/2000/svg" xmlns:xlink="http://www.w3.org/1999/xlink"><linearGradient id="SVGID_1_" gradientUnits="userSpaceOnUse" x1="256" x2="256" y1="512" y2="0"><stop offset="0" stop-color="#ffbef9"/><stop offset="1" stop-color="#fff1ff"/></linearGradient><linearGradient id="SVGID_2_" gradientTransform="matrix(.707 .707 -.707 .707 3402.085 868.641)" gradientUnits="userSpaceOnUse" x1="-2657.821" x2="-2657.821" y1="1642.718" y2="1940.113"><stop offset="0" stop-color="#a93aff"/><stop offset="1" stop-color="#ff81ff"/></linearGradient><g><g><circle cx="256" cy="256" fill="url(#SVGID_1_)" r="256"/></g><g><g><path d="m194.164 305.467 12.369 12.369c3.418 3.418 8.951 3.418 12.369 0l98.952-98.952c3.418-3.418 3.418-8.951 0-12.369l-12.369-12.369c-3.418-3.418-8.951-3.418-12.369 0l-98.952 98.952c-3.419 3.419-3.419 8.951 0 12.369zm210.272-111.321-86.583-86.583c-3.418-3.418-8.951-3.418-12.369 0l-80.398 80.398c-3.418 3.418-3.418 8.951 0 12.369l18.553 18.553 61.845-61.845c3.418-3.418 8.951-3.418 12.369 0l37.107 37.107c3.418 3.418 3.418 8.951 0 12.369l-61.845 61.845 18.553 18.553c3.418 3.418 8.951 3.418 12.369 0l80.398-80.398c3.42-3.417 3.42-8.949.001-12.368zm-136.076 98.969c-.989.989-59.24 59.24-61.845 61.845-3.418 3.418-8.951 3.418-12.369 0l-37.107-37.107c-3.418-3.418-3.418-8.951 0-12.369 2.206-2.206 57.677-57.677 61.845-61.845l-18.553-18.553c-3.418-3.418-8.951-3.418-12.369 0l-80.398 80.398c-3.418 3.418-3.418 8.951 0 12.369l86.583 86.583c3.418 3.418 8.951 3.418 12.369 0l80.398-80.398c3.418-3.418 3.418-8.951 0-12.369z" fill="url(#SVGID_2_)"/></g></g></g></svg>