<svg id="Capa_1" enable-background="new 0 0 512 512" height="512" viewBox="0 0 512 512" width="512" xmlns="http://www.w3.org/2000/svg"><g><path d="m223.74 304.793h156.333c19.411 0 35.147-15.736 35.147-35.147 0-6.939-2.054-13.723-5.903-19.496l-156.333-234.499c-13.912-20.868-44.576-20.868-58.488 0l-156.333 234.499c-3.849 5.774-5.903 12.557-5.903 19.496 0 19.411 15.736 35.147 35.147 35.147z" fill="#f6e781"/><path d="m207.54 304.793h16.2 156.333c19.411 0 35.147-15.736 35.147-35.147 0-6.939-2.054-13.723-5.903-19.496l-54.376-81.564c-.026 0-.053-.001-.079-.001-77.59 0-141.403 60.111-147.322 136.208z" fill="#f4dd45"/><circle cx="223.74" cy="250.797" fill="#407093" r="20.813"/><path d="m223.74 271.61c11.495 0 20.813-9.318 20.813-20.813 0-8.02-4.543-14.97-11.19-18.445-7.868 11.345-14.189 23.836-18.657 37.173 2.735 1.322 5.792 2.085 9.034 2.085z" fill="#365e7d"/><path d="m223.74 196.683c-11.495 0-20.813-9.318-20.813-20.813v-106.146c0-11.495 9.318-20.813 20.813-20.813 11.495 0 20.813 9.318 20.813 20.813v106.146c0 11.495-9.318 20.813-20.813 20.813z" fill="#407093"/><g><path d="m375.779 474.537h-41.835c-5.69 0-10.302-4.612-10.302-10.302v-27.162h62.439v27.162c0 5.689-4.612 10.302-10.302 10.302z" fill="#2b4d66"/><path d="m363.292 512h-16.86c-5.69 0-10.302-4.612-10.302-10.302v-27.162h37.463v27.162c.001 5.69-4.612 10.302-10.301 10.302z" fill="#4a80aa"/><circle cx="354.862" cy="316.358" fill="#95d6a4" r="124.878"/><path d="m430.381 216.904c15.95 20.973 25.424 47.138 25.424 75.519 0 68.968-55.91 124.878-124.878 124.878-28.381 0-54.546-9.474-75.519-25.424 22.809 29.992 58.867 49.359 99.454 49.359 68.968 0 124.878-55.91 124.878-124.878 0-40.587-19.368-76.645-49.359-99.454z" fill="#78c2a4"/><circle cx="354.862" cy="316.358" fill="#e4f6ff" r="91.577"/><path d="m410.164 243.365c11.66 15.367 18.584 34.525 18.584 55.302 0 50.577-41 91.577-91.577 91.577-20.778 0-39.935-6.924-55.302-18.584 16.723 22.039 43.194 36.275 72.993 36.275 50.577 0 91.577-41.001 91.577-91.577 0-29.799-14.236-56.27-36.275-72.993z" fill="#d3effb"/></g></g></svg>