<?xml version="1.0" encoding="iso-8859-1"?>
<!-- Generator: Adobe Illustrator 19.0.0, SVG Export Plug-In . SVG Version: 6.00 Build 0)  -->
<svg version="1.1" id="Capa_1" xmlns="http://www.w3.org/2000/svg" xmlns:xlink="http://www.w3.org/1999/xlink" x="0px" y="0px"
	 viewBox="0 0 512 512" style="enable-background:new 0 0 512 512;" xml:space="preserve">
<path style="fill:#4DA6FF;" d="M437,0H75C33.6,0,0,33.6,0,75v362c0,41.4,33.6,75,75,75h362c41.4,0,75-33.6,75-75V75
	C512,33.6,478.4,0,437,0z"/>
<path style="fill:#4596E6;" d="M512,75v362c0,41.4-33.6,75-75,75H256V0h181C478.4,0,512,33.6,512,75z"/>
<path style="fill:#E6EEFF;" d="M416.201,259.6l-7.5,30c-1.501,6.599-7.5,11.4-14.401,11.4H316v211h-60V301h-60
	c-8.401,0-15-6.601-15-15v-30c0-8.401,6.599-15,15-15h60v-60c0-49.801,40.201-90,90-90h45c8.401,0,15,6.599,15,15v30
	c0,8.399-6.599,15-15,15h-45c-16.5,0-30,13.5-30,30v60h85.8C411.4,241,418.599,250.3,416.201,259.6z"/>
<path style="fill:#DAE2F2;" d="M416.201,259.6l-7.5,30c-1.501,6.599-7.5,11.4-14.401,11.4H316v211h-60V181c0-49.801,40.201-90,90-90
	h45c8.401,0,15,6.599,15,15v30c0,8.399-6.599,15-15,15h-45c-16.5,0-30,13.5-30,30v60h85.8C411.4,241,418.599,250.3,416.201,259.6z"
	/>
<g>
</g>
<g>
</g>
<g>
</g>
<g>
</g>
<g>
</g>
<g>
</g>
<g>
</g>
<g>
</g>
<g>
</g>
<g>
</g>
<g>
</g>
<g>
</g>
<g>
</g>
<g>
</g>
<g>
</g>
</svg>
