<svg id="Layer_1_1_" enable-background="new 0 0 64 64" height="512" viewBox="0 0 64 64" width="512" xmlns="http://www.w3.org/2000/svg"><path d="m61 53-8 8h-50v-54h58z" fill="#50b6cf"/><path d="m61 53v-34c-7.58538 14.83734-30.12531 26.14594-58 28.53851v13.47083h50z" fill="#3cadc9"/><path d="m61 53h-8v8z" fill="#ea5b58"/><g fill="#223b5a"><path d="m14 18c-1.6543 0-3-1.3457-3-3v-8c0-2.75684 2.24316-5 5-5s5 2.24316 5 5h-2c0-1.6543-1.3457-3-3-3s-3 1.3457-3 3v8c0 .55176.44824 1 1 1s1-.44824 1-1v-8h2v8c0 1.6543-1.3457 3-3 3z"/><path d="m15 22h4v2h-4z"/><path d="m22 22h27v2h-27z"/><path d="m15 28h4v2h-4z"/><path d="m22 28h27v2h-27z"/><path d="m15 34h4v2h-4z"/><path d="m22 34h27v2h-27z"/><path d="m15 40h4v2h-4z"/><path d="m22 40h27v2h-27z"/><path d="m15 46h4v2h-4z"/><path d="m22 46h27v2h-27z"/></g></svg>