<svg id="Capa_1" enable-background="new 0 0 512 512" height="512" viewBox="0 0 512 512" width="512" xmlns="http://www.w3.org/2000/svg" xmlns:xlink="http://www.w3.org/1999/xlink"><linearGradient id="SVGID_1_" gradientUnits="userSpaceOnUse" x1="256" x2="256" y1="512" y2="0"><stop offset="0" stop-color="#ffc8d1"/><stop offset="1" stop-color="#fff6f7"/></linearGradient><linearGradient id="SVGID_2_" gradientUnits="userSpaceOnUse" x1="256" x2="256" y1="407" y2="105"><stop offset="0" stop-color="#ffa68d"/><stop offset="1" stop-color="#fd3a84"/></linearGradient><g><g><circle cx="256" cy="256" fill="url(#SVGID_1_)" r="256"/></g></g><g><g><g><g><path d="m220.571 140.391c0-19.514-15.893-35.391-35.428-35.391s-35.428 15.876-35.428 35.391 15.893 35.391 35.428 35.391 35.428-15.877 35.428-35.391zm-26.571 35.39h-8.857-8.857c-24.419 0-44.286 19.845-44.286 44.238 0 4.886 3.966 8.848 8.857 8.848h88.572c4.892 0 8.857-3.961 8.857-8.848 0-24.393-19.867-44.238-44.286-44.238zm168.286 35.391c0-19.514-15.893-35.391-35.428-35.391s-35.428 15.876-35.428 35.391 15.893 35.391 35.428 35.391 35.428-15.877 35.428-35.391zm-79.715 88.476h88.572c4.892 0 8.857-3.961 8.857-8.848 0-24.393-19.866-44.238-44.286-44.238h-8.857-8.857c-24.419 0-44.286 19.845-44.286 44.238 0 4.887 3.966 8.848 8.857 8.848zm-53.142-53.085h-88.572c-4.892 0-8.857 3.961-8.857 8.848v142.742c0 4.886 3.966 8.848 8.857 8.848h88.572c4.892 0 8.857-3.961 8.857-8.848v-142.743c0-4.886-3.966-8.847-8.857-8.847zm141.714 70.781h-88.572c-4.892 0-8.857 3.961-8.857 8.848v71.961c0 4.886 3.965 8.848 8.857 8.848h88.572c4.892 0 8.857-3.961 8.857-8.848v-71.961c0-4.887-3.966-8.848-8.857-8.848z" fill="url(#SVGID_2_)"/></g></g></g></g></svg>