<svg id="Capa_1" enable-background="new 0 0 512 512" height="512" viewBox="0 0 512 512" width="512" xmlns="http://www.w3.org/2000/svg" xmlns:xlink="http://www.w3.org/1999/xlink"><linearGradient id="SVGID_1_" gradientUnits="userSpaceOnUse" x1="256" x2="256" y1="512" y2="0"><stop offset="0" stop-color="#addcff"/><stop offset=".5028" stop-color="#eaf6ff"/><stop offset="1" stop-color="#eaf6ff"/></linearGradient><linearGradient id="SVGID_2_" gradientUnits="userSpaceOnUse" x1="256" x2="256" y1="407" y2="105"><stop offset="0" stop-color="#00c0ff"/><stop offset="1" stop-color="#5558ff"/></linearGradient><g><g><circle cx="256" cy="256" fill="url(#SVGID_1_)" r="256"/></g><g><g><g><path d="m326.545 105h-141.09c-14.588 0-26.455 11.953-26.455 26.647v248.706c0 14.694 11.867 26.647 26.455 26.647h141.091c14.587 0 26.454-11.953 26.454-26.647v-248.706c0-14.694-11.867-26.647-26.455-26.647zm-61.727 266.471h-17.636c-4.874 0-8.818-3.973-8.818-8.882s3.944-8.882 8.818-8.882h17.636c4.874 0 8.818 3.973 8.818 8.882s-3.944 8.882-8.818 8.882zm52.909-44.412c0 4.91-3.944 8.883-8.818 8.883h-105.818c-4.874 0-8.818-3.973-8.818-8.883v-177.647c0-4.909 3.944-8.882 8.818-8.882h105.818c4.874 0 8.818 3.973 8.818 8.882z" fill="url(#SVGID_2_)"/></g></g></g></g></svg>