<?xml version="1.0" encoding="iso-8859-1"?>
<!-- Generator: Adobe Illustrator 19.0.0, SVG Export Plug-In . SVG Version: 6.00 Build 0)  -->
<svg version="1.1" id="Capa_1" xmlns="http://www.w3.org/2000/svg" xmlns:xlink="http://www.w3.org/1999/xlink" x="0px" y="0px"
	 viewBox="0 0 475.951 475.951" style="enable-background:new 0 0 475.951 475.951;" xml:space="preserve">
<path style="fill:#4DCFE0;" d="M231.523,328.098v-75.233c0-5.747,3.135-10.971,8.359-13.584l33.437-18.286l9.404-5.224
	c-10.449-7.837-22.465-14.629-35.004-19.853c27.69-19.331,45.975-51.722,45.975-88.294C293.694,48.065,245.629,0,186.07,0
	S78.446,48.065,78.446,107.624c0,36.571,18.286,68.963,45.976,88.294c-60.082,24.555-102.4,83.069-102.4,152.033v77.845
	c0,8.882,6.792,15.673,15.673,15.673h244.506c-2.09-1.567-3.657-3.657-5.224-5.224C248.241,408.033,231.523,368.849,231.523,328.098
	z"/>
<path style="fill:#D4E1F4;" d="M446.25,239.282l-99.265-53.29c-4.702-2.612-10.449-2.612-15.151,0l-53.812,29.78l-9.404,5.224
	l-33.437,18.286c-5.224,2.612-8.359,7.837-8.359,13.584v75.233c0,40.751,16.718,79.935,44.931,108.147
	c1.567,2.09,3.657,3.657,5.225,5.224c12.539,11.494,26.645,20.898,41.796,27.167l13.061,5.747c2.09,1.045,4.18,1.567,6.269,1.567
	c2.09,0,4.18-0.522,5.747-1.045l15.151-6.269c27.69-11.494,51.722-31.347,68.963-56.424c16.718-25.6,25.6-54.857,25.6-84.637v-74.71
	C455.131,247.118,451.474,241.894,446.25,239.282z"/>
<path style="fill:#3A2C51;" d="M376.764,297.273l-48.588,39.706l-16.196-18.808c-5.747-6.792-15.673-7.314-21.943-1.567
	s-7.314,15.673-1.567,21.943l26.122,30.824c3.135,3.657,7.314,5.747,12.016,5.747c3.657,0,6.792-1.045,9.927-3.657l60.604-49.633
	c6.792-5.224,7.837-15.151,2.09-21.943C392.96,292.571,383.033,291.527,376.764,297.273z"/>
<g>
</g>
<g>
</g>
<g>
</g>
<g>
</g>
<g>
</g>
<g>
</g>
<g>
</g>
<g>
</g>
<g>
</g>
<g>
</g>
<g>
</g>
<g>
</g>
<g>
</g>
<g>
</g>
<g>
</g>
</svg>
