<svg id="Capa_1" enable-background="new 0 0 512 512" height="512" viewBox="0 0 512 512" width="512" xmlns="http://www.w3.org/2000/svg" xmlns:xlink="http://www.w3.org/1999/xlink"><linearGradient id="SVGID_1_" gradientUnits="userSpaceOnUse" x1="256" x2="256" y1="512" y2="0"><stop offset="0" stop-color="#addcff"/><stop offset=".5028" stop-color="#eaf6ff"/><stop offset="1" stop-color="#eaf6ff"/></linearGradient><linearGradient id="SVGID_2_" gradientUnits="userSpaceOnUse" x1="256.002" x2="256.002" y1="105" y2="407"><stop offset="0" stop-color="#5558ff"/><stop offset="1" stop-color="#00c0ff"/></linearGradient><g><g><circle cx="256" cy="256" fill="url(#SVGID_1_)" r="256"/></g><g><g><path d="m282.649 193.823c0-48.974-39.849-88.823-88.823-88.823s-88.824 39.849-88.824 88.823c0 20.714 7.069 40.361 20.063 56.2l-17.461 17.461c-2.542 2.542-3.305 6.358-1.926 9.68 1.371 3.322 4.615 5.482 8.206 5.482h79.941c48.975.001 88.824-39.848 88.824-88.823zm-88.823 53.294c-4.906 0-8.882-3.977-8.882-8.883 0-4.905 3.976-8.882 8.882-8.882 4.905 0 8.882 3.977 8.882 8.882s-3.977 8.883-8.882 8.883zm15.795-58.481c-4.328 3.184-6.913 8.293-6.913 13.653 0 4.91-3.973 9.091-8.882 9.091-4.91 0-8.882-3.765-8.882-8.674 0-11.406 5.283-21.859 14.139-28.373 2.299-1.691 3.626-4.302 3.626-7.156 0-4.901-3.981-8.882-8.882-8.882s-8.882 3.981-8.882 8.882c0 4.909-3.973 8.882-8.882 8.882-4.91 0-8.882-3.973-8.882-8.882 0-14.694 11.953-26.647 26.647-26.647s26.647 11.953 26.647 26.647c-.002 8.431-4.062 16.454-10.854 21.459zm179.902 188.325c11.329-14.122 17.479-31.54 17.479-49.903 0-44.082-35.859-79.941-79.941-79.941s-79.941 35.859-79.941 79.941c0 44.083 35.859 79.941 79.941 79.941h71.059c3.591 0 6.835-2.16 8.206-5.482 1.379-3.322.616-7.139-1.926-9.681zm-32.319-15.093c-4.406 1.917-9.705-.09-11.658-4.667l-5.306-12.378h-26.356l-5.306 12.378c-1.926 4.519-7.191 6.61-11.658 4.667-4.511-1.934-6.601-7.156-4.667-11.658 8.291-19.348 27.686-64.601 26.647-62.176 2.793-6.541 13.532-6.541 16.325 0 1.726 4.028 25.203 58.808 26.647 62.177 1.933 4.501-.158 9.723-4.668 11.657zm-35.707-34.809h11.127l-5.563-12.977z" fill="url(#SVGID_2_)"/></g></g></g></svg>