<svg id="Capa_1" enable-background="new 0 0 512 512" height="512" viewBox="0 0 512 512" width="512" xmlns="http://www.w3.org/2000/svg"><g><path d="m49.852 461.091-1.683-45.121c-.325-8.703-3.101-17.138-8.01-24.332l-29.754-43.604c-13.55-19.857-13.892-45.897-.868-66.103l50.476-78.085 34.313 113.861-13.456 143.624-27.193 3.053c-1.99.223-3.75-1.292-3.825-3.293z" fill="#f1d0a5"/><path d="m462.148 461.091 1.683-45.121c.325-8.703 3.101-17.138 8.01-24.332l29.754-43.604c13.55-19.857 13.892-45.897.868-66.103l-50.028-77.768-34.761 113.544 13.455 143.625 27.193 3.053c1.991.222 3.751-1.293 3.826-3.294z" fill="#f1d0a5"/><path d="m502.464 281.93-50.028-77.768-5.297 27.296 32.533 50.472c13.024 20.206 12.682 46.246-.868 66.104l-29.754 43.604c-4.909 7.194-7.686 15.629-8.01 24.332l-1.726 46.28 19.011 2.134c1.99.223 3.75-1.292 3.825-3.293l1.683-45.121c.325-8.703 3.101-17.138 8.01-24.331l29.754-43.604c13.549-19.859 13.891-45.899.867-66.105z" fill="#f1b986"/><path d="m431.099 328.114h-350.198c-12.995 0-23.529-10.534-23.529-23.529v-233.461c0-12.995 10.534-23.529 23.529-23.529h350.199c12.995 0 23.529 10.534 23.529 23.529v233.461c0 12.995-10.535 23.529-23.53 23.529z" fill="#365e7d"/><path d="m431.099 47.594h-15.977c12.995 0 23.529 10.535 23.529 23.529v233.461c0 12.995-10.534 23.529-23.529 23.529h15.977c12.995 0 23.53-10.534 23.53-23.529v-233.46c0-12.995-10.535-23.53-23.53-23.53z" fill="#2b4d66"/><path d="m420.871 80.072h-320.92c-.705 0-1.28.607-1.28 1.353v212.858c0 .746.574 1.353 1.28 1.353h320.919c.706 0 1.281-.607 1.281-1.353v-212.858c0-.746-.574-1.353-1.28-1.353z" fill="#d3effb"/><path d="m420.871 80.072h-17.093c.706 0 1.281.607 1.281 1.353v212.858c0 .746-.574 1.353-1.281 1.353h17.093c.706 0 1.281-.607 1.281-1.353v-212.858c-.001-.746-.575-1.353-1.281-1.353z" fill="#b1e4f9"/><g><path d="m170.726 276.159c-1.603 0-3.216-.497-4.595-1.518l-17.07-12.644c-3.429-2.539-4.15-7.378-1.61-10.807 2.539-3.43 7.38-4.149 10.807-1.61l11.299 8.368 18.708-21.74c2.783-3.234 7.661-3.602 10.896-.818s3.601 7.662.817 10.896l-23.392 27.185c-1.52 1.77-3.68 2.688-5.86 2.688z" fill="#95d6a4"/></g><g><path d="m377.463 262.567h-145.408c-4.267 0-7.726-3.459-7.726-7.726 0-4.268 3.459-7.726 7.726-7.726h145.408c4.268 0 7.726 3.459 7.726 7.726.001 4.267-3.458 7.726-7.726 7.726z" fill="#365e7d"/></g><g><path d="m78.223 201.16c-4.267 0-7.726-3.459-7.726-7.726v-11.159c0-4.268 3.459-7.726 7.726-7.726s7.726 3.459 7.726 7.726v11.159c.001 4.268-3.458 7.726-7.726 7.726z" fill="#2b4d66"/></g><path d="m116.61 454.45.762-32.788c.133-5.71 1.159-11.363 3.042-16.755 5.289-15.146 2.294-31.954-7.902-44.34-2.146-2.607-2.482-6.261-.846-9.216l43.331-78.288c3.514-6.349 2.352-14.263-2.838-19.335-6.498-6.349-16.956-6.077-23.115.602l-72.078 78.164 4.742 54.473 19.161 74.365 32.668-3.538c1.719-.187 3.033-1.617 3.073-3.344z" fill="#f1d0a5"/><path d="m154.997 273.062c3.514-6.349 2.352-14.263-2.838-19.335-5.855-5.721-14.914-6.048-21.157-1.175.465.364.918.753 1.35 1.175 5.19 5.071 6.352 12.986 2.838 19.335l-43.331 78.288c-1.635 2.955-1.3 6.609.847 9.216 10.196 12.387 13.191 29.194 7.902 44.341-1.883 5.392-2.909 11.046-3.042 16.755l-.554 23.846c-.159 6.844-5.366 12.511-12.172 13.248l-2.364.256c-1.13.122-1.888 1.218-1.605 2.319l32.668-3.538c1.718-.186 3.031-1.616 3.072-3.343l.74-31.817c.14-6.013 1.061-12.008 3.05-17.684 5.31-15.157 2.318-31.985-7.887-44.383-2.146-2.607-2.482-6.261-.847-9.216z" fill="#f1b986"/><path d="m395.39 454.45-.762-32.788c-.133-5.71-1.159-11.363-3.042-16.755-5.289-15.146-2.294-31.954 7.902-44.34 2.146-2.607 2.482-6.261.846-9.216l-43.331-78.288c-3.514-6.349-2.352-14.263 2.838-19.335 6.498-6.349 16.956-6.077 23.115.602l72.078 78.164-4.742 54.473-19.161 74.365-32.668-3.538c-1.719-.187-3.033-1.617-3.073-3.344z" fill="#f1d0a5"/><g><path d="m170.726 153.345c-1.603 0-3.216-.497-4.595-1.518l-17.07-12.644c-3.429-2.539-4.15-7.378-1.61-10.807 2.539-3.43 7.38-4.15 10.807-1.61l11.299 8.368 18.708-21.74c2.783-3.234 7.661-3.602 10.896-.818s3.601 7.662.817 10.896l-23.392 27.185c-1.52 1.77-3.68 2.688-5.86 2.688z" fill="#95d6a4"/></g><g><path d="m377.463 139.753h-145.408c-4.267 0-7.726-3.459-7.726-7.726 0-4.268 3.459-7.726 7.726-7.726h145.408c4.268 0 7.726 3.459 7.726 7.726.001 4.267-3.458 7.726-7.726 7.726z" fill="#365e7d"/></g><g><path d="m377.463 201.16h-145.408c-4.267 0-7.726-3.459-7.726-7.726 0-4.268 3.459-7.726 7.726-7.726h145.408c4.268 0 7.726 3.459 7.726 7.726.001 4.268-3.458 7.726-7.726 7.726z" fill="#365e7d"/></g><g><g><path d="m158.413 214.83c-1.977 0-3.955-.755-5.463-2.263-3.018-3.017-3.018-7.909 0-10.927l27.339-27.34c3.017-3.018 7.909-3.017 10.927-.001 3.018 3.017 3.018 7.909 0 10.927l-27.339 27.34c-1.509 1.51-3.487 2.264-5.464 2.264z" fill="#dd636e"/></g><g><path d="m185.752 214.83c-1.977 0-3.955-.755-5.463-2.264l-27.339-27.34c-3.018-3.017-3.018-7.909 0-10.927 3.017-3.017 7.909-3.016 10.927.001l27.339 27.34c3.018 3.017 3.018 7.909 0 10.927-1.509 1.509-3.487 2.263-5.464 2.263z" fill="#dd636e"/></g></g></g></svg>